<?xml version="1.0" encoding="UTF-8"?>
<!DOCTYPE svg PUBLIC "-//W3C//DTD SVG 1.1//EN" "http://www.w3.org/Graphics/SVG/1.1/DTD/svg11.dtd">
<!-- Creator: CorelDRAW -->
<svg xmlns="http://www.w3.org/2000/svg" xml:space="preserve" width="3.41333in" height="3.41333in" version="1.1" style="shape-rendering:geometricPrecision; text-rendering:geometricPrecision; image-rendering:optimizeQuality; fill-rule:evenodd; clip-rule:evenodd"
viewBox="0 0 3413.33 3413.33"
 xmlns:xlink="http://www.w3.org/1999/xlink"
 xmlns:xodm="http://www.corel.com/coreldraw/odm/2003">
 <defs>
  <style type="text/css">
   <![CDATA[
    .fil2 {fill:none}
    .fil1 {fill:#FEFEFE}
    .fil0 {fill:#8800F7}
   ]]>
  </style>
    <mask id="id0">
  <linearGradient id="id1" gradientUnits="userSpaceOnUse" x1="832.71" y1="1349.43" x2="3177.03" y2="3254.67">
   <stop offset="0" style="stop-opacity:1; stop-color:white"/>
   <stop offset="0.490196" style="stop-opacity:1; stop-color:white"/>
   <stop offset="1" style="stop-opacity:1; stop-color:white"/>
  </linearGradient>
     <rect style="fill:url(#id1)" x="316.38" y="401.87" width="2746.12" height="2587.73"/>
    </mask>
 </defs>
 <g id="Layer_x0020_1">
  <metadata id="CorelCorpID_0Corel-Layer"/>
  <g id="_2552967866656">
   <path class="fil0" style="mask:url(#id0)" d="M920.09 401.87l1538.69 0c332.04,0 603.71,271.67 603.71,603.72l0 1380.3c0,332.04 -271.67,603.72 -603.71,603.72l-1538.69 0c-332.05,0 -603.72,-271.67 -603.72,-603.72l0 -1380.3c0,-332.05 271.67,-603.72 603.72,-603.72z"/>
   <g>
    <g>
     <path class="fil1" d="M1820.36 1631.47c-216.65,-66.07 -459.8,56.56 -559.14,253.35 -95.63,189.47 22.35,345.89 205.78,410.97 344.81,122.34 629.94,-338.13 693.35,-626.43 90.02,-409.23 -107.16,-679.66 -528.35,-693.42 -310.01,-10.13 -631.43,168.76 -768.15,452.72 -55.54,115.35 6.62,2.6 -67.15,129.56l17.43 -78.41c99.95,-386.84 510.44,-623.65 892.33,-595.33 1115.74,82.74 475.21,1816.77 -290.97,1566.42 -389.19,-127.16 -475.15,-515.5 -200.5,-808.11 177.71,-189.34 417.85,-267.08 668.67,-196.33 50.6,17.64 77.45,73.36 59.97,124.44 -17.47,51.09 -72.66,78.2 -123.26,60.56z"/>
    </g>
    <path class="fil2" d="M1852 1538.97c-465.37,-162.26 -1050.44,516.76 -470.44,809.28 637.16,321.35 1269.48,-1101.6 527.65,-1369.34 -362.69,-130.89 -769.54,2.65 -992.91,318.16 -69.22,97.78 -72.1,149.61 -119.61,261.16"/>
    <ellipse class="fil1" cx="2411.75" cy="2095.21" rx="170.42" ry="164.84"/>
   </g>
  </g>
 </g>
</svg>
